<?xml version="1.0" encoding="UTF-8" standalone="no"?>
<svg
   xmlns:dc="http://purl.org/dc/elements/1.1/"
   xmlns:cc="http://creativecommons.org/ns#"
   xmlns:rdf="http://www.w3.org/1999/02/22-rdf-syntax-ns#"
   xmlns:svg="http://www.w3.org/2000/svg"
   xmlns="http://www.w3.org/2000/svg"
   viewBox="0 0 561.33331 134.66667"
   height="134.66667"
   width="561.33331"
   xml:space="preserve"
   id="svg2"
   version="1.1"><metadata
     id="metadata8"><rdf:RDF><cc:Work
         rdf:about=""><dc:format>image/svg+xml</dc:format><dc:type
           rdf:resource="http://purl.org/dc/dcmitype/StillImage" /></cc:Work></rdf:RDF></metadata><defs
     id="defs6" /><g
     transform="matrix(1.3333333,0,0,-1.3333333,0,134.66667)"
     id="g10"><g
       transform="scale(0.1)"
       id="g12"><path
         id="path14"
         style="fill:#283f87;fill-opacity:1;fill-rule:evenodd;stroke:none"
         d="M 599.449,275.898 C 499.801,340.82 418.441,387.148 355.43,414.961 292.379,442.73 244.961,454.102 213.199,449.02 181.371,443.949 161.09,428.051 152.27,401.371 c -8.829,-26.762 -8.829,-61.992 0,-105.82 8.82,-43.789 22.3,-91.063 40.46,-141.84 -15.46,-3.199 -31.25,-6.68 -47.3,-10.43 -15.739,-4.019 -31.758,-7.621 -48.0902,-10.82 -25.0703,88.711 -39.8789,161.488 -44.4492,218.398 -4.2617,56.871 -0.5117,101.09 11.211,132.621 12.0273,31.52 31.0195,51.68 56.9184,60.5 26.171,8.829 57.031,8.95 92.531,0.399 35.551,-8.25 75.078,-23.758 118.64,-46.488 43.278,-22.692 88.118,-49.692 134.61,-80.942 46.519,-31.25 93.238,-65.308 140.269,-102.148 46.989,-36.871 92.418,-73.59 136.211,-110.192 C 786.84,168.012 827.852,132.621 866.328,98.3984 904.531,64.2188 937.5,34.5703 965.27,9.44922 821.02,121.91 699.102,210.738 599.449,275.898" /><path
         id="path16"
         style="fill:#732e26;fill-opacity:1;fill-rule:evenodd;stroke:none"
         d="m 245.621,1010 c -17.609,-0.27 -33.672,-4.53 -48.082,-12.852 -14.141,-8.519 -25.508,-20 -34.059,-34.449 -8.558,-14.148 -12.82,-30.16 -12.82,-48.09 0.281,-17.621 4.539,-33.629 12.82,-48.089 8.551,-14.141 19.918,-25.5 34.059,-34.059 14.41,-8.512 30.473,-12.93 48.082,-13.199 17.899,0.269 33.949,4.687 48.09,13.199 14.41,8.559 25.898,19.918 34.449,34.059 8.559,14.46 12.86,30.468 12.86,48.089 -0.321,17.93 -4.571,33.942 -12.86,48.09 -8.551,14.449 -20.039,25.93 -34.449,34.449 -14.141,8.322 -30.191,12.582 -48.09,12.852 M 651.559,836.09 c -20.039,12.031 -43.981,15.629 -71.719,10.82 -27.809,-4.801 -58.789,-16.172 -93,-34.058 -34.461,-17.93 -69.57,-38.204 -105.36,-60.903 -35.82,-22.73 -71.871,-45.82 -108.199,-69.328 C 236.949,659.379 203.012,639.488 171.48,622.93 139.961,606.09 111.52,595 86.1719,589.691 60.7813,584.34 40.6211,588.59 25.6211,602.461 10.9805,616.371 2.53906,641.762 0.429688,678.59 -1.71875,715.469 4.41016,767.809 18.8711,835.699 c 11.9883,-1.359 24.1406,-2.808 36.3984,-4.41 12.3086,-1.879 24.461,-4.141 36.4922,-6.84 C 79.7305,781.211 75.1992,749.41 78.1211,729.102 81.0898,708.789 89.7695,696.25 104.18,691.449 c 14.14,-4.808 33.242,-2.82 57.3,6.012 24.032,8.789 50.79,20.699 80.122,35.66 29.687,14.969 60.937,31.649 93.789,50.078 32.847,18.68 65.429,36.063 97.769,52.071 32.578,15.781 63.828,28.48 93.75,38.089 29.649,9.371 56.371,12.661 80.16,10 23.75,-2.66 43.239,-13.089 58.52,-31.211 15.191,-18.437 24.14,-47.968 26.789,-88.597 -7.457,36.609 -21.09,60.789 -40.82,72.539" /><path
         id="path18"
         style="fill:#6a2426;fill-opacity:1;fill-rule:nonzero;stroke:none"
         d="m 801.52,554.141 v 280.468 h 102.191 c 31.25,0 55.238,-5.738 72.027,-17.187 16.883,-11.481 25.312,-27.621 25.312,-48.442 0,-15.23 -5.109,-28.511 -15.312,-39.839 C 975.512,717.891 962.461,710 946.52,705.551 v -0.781 c 20,-2.5 35.941,-9.93 47.82,-22.192 11.95,-12.187 17.96,-27.109 17.96,-44.687 0,-25.743 -9.21,-46.172 -27.652,-61.25 -18.359,-15 -43.437,-22.5 -75.308,-22.5 z m 63.281,233.91 v -66.41 h 27.66 c 13.129,0 23.437,3.129 30.937,9.379 7.5,6.32 11.25,15.07 11.25,26.25 0,20.5 -15.429,30.781 -46.25,30.781 z m 0,-113.442 v -73.91 h 34.219 c 14.57,0 25.98,3.36 34.218,10.16 8.321,6.762 12.5,16.02 12.5,27.813 0,11.25 -4.058,20.039 -12.187,26.406 -8.121,6.332 -19.531,9.531 -34.211,9.531 z m 367.349,-37.968 h -130.63 c 2.07,-29.063 20.39,-43.59 55,-43.59 21.96,0 41.33,5.187 58.13,15.621 v -44.531 c -18.56,-9.922 -42.62,-14.84 -72.19,-14.84 -32.42,0 -57.58,8.937 -75.47,26.871 -17.81,17.887 -26.72,42.887 -26.72,75 0,33.207 9.61,59.527 28.91,78.906 19.37,19.453 43.12,29.223 71.25,29.223 29.26,0 51.87,-8.711 67.81,-26.102 15.94,-17.301 23.91,-40.777 23.91,-70.469 z m -57.35,37.968 c 0,28.75 -11.56,43.121 -34.68,43.121 -10,0 -18.6,-4.14 -25.78,-12.339 -7.19,-8.243 -11.64,-18.512 -13.29,-30.782 z" /><path
         id="path20"
         style="fill:#6a2426;fill-opacity:1;fill-rule:nonzero;stroke:none"
         d="m 1437.19,783.199 h -98.91 v -68.898 h 90.94 v -51.25 h -90.94 V 554.141 H 1275 v 280.468 h 162.19 z" /><path
         id="path22"
         style="fill:#6a2426;fill-opacity:1;fill-rule:nonzero;stroke:none"
         d="m 1729.92,554.141 h -68.9 l -19.85,62.339 h -99.84 l -19.69,-62.339 h -68.44 l 102.03,280.468 h 75 z m -103.28,110.937 -30.16,94.223 c -2.18,7.07 -3.75,15.5 -4.68,25.308 h -1.57 c -0.62,-8.238 -2.26,-16.41 -4.84,-24.531 l -30.47,-95 z" /><path
         id="path24"
         style="fill:#6a2426;fill-opacity:1;fill-rule:nonzero;stroke:none"
         d="m 1764.92,554.141 v 280.468 h 102.19 c 31.25,0 55.23,-5.738 72.03,-17.187 16.88,-11.481 25.31,-27.621 25.31,-48.442 0,-15.23 -5.11,-28.511 -15.31,-39.839 -10.23,-11.25 -23.28,-19.141 -39.22,-23.59 v -0.781 c 20,-2.5 35.94,-9.93 47.81,-22.192 11.96,-12.187 17.97,-27.109 17.97,-44.687 0,-25.743 -9.22,-46.172 -27.65,-61.25 -18.36,-15 -43.44,-22.5 -75.32,-22.5 z m 63.28,233.91 v -66.41 h 27.66 c 13.12,0 23.44,3.129 30.94,9.379 7.5,6.32 11.25,15.07 11.25,26.25 0,20.5 -15.43,30.781 -46.25,30.781 z m 0,-113.442 v -73.91 h 34.22 c 14.57,0 25.98,3.36 34.22,10.16 8.32,6.762 12.5,16.02 12.5,27.813 0,11.25 -4.06,20.039 -12.19,26.406 -8.12,6.332 -19.53,9.531 -34.22,9.531 z" /><path
         id="path26"
         style="fill:#6a2426;fill-opacity:1;fill-rule:nonzero;stroke:none"
         d="m 2017.54,639.449 h 107.031 v 43.2813 H 2017.54 Z" /><path
         id="path28"
         style="fill:#6a2426;fill-opacity:1;fill-rule:nonzero;stroke:none"
         d="m 2435.98,554.141 h -63.75 l -115.63,176.25 c -6.8,10.308 -11.48,18.05 -14.06,23.281 h -0.78 c 1.01,-9.922 1.56,-25 1.56,-45.313 V 554.141 h -59.69 v 280.468 h 68.13 l 111.25,-170.781 c 5.08,-7.738 9.84,-15.308 14.22,-22.808 h 0.78 c -1.17,6.441 -1.72,19.289 -1.72,38.589 v 155 h 59.69 z" /><path
         id="path30"
         style="fill:#6a2426;fill-opacity:1;fill-rule:nonzero;stroke:none"
         d="m 2701.68,564.141 c -20.43,-9.922 -47.15,-14.84 -80.16,-14.84 -43.04,0 -76.87,12.578 -101.56,37.808 -24.61,25.313 -36.87,59.063 -36.87,101.25 0,44.879 13.82,81.25 41.56,109.063 27.69,27.887 63.63,41.879 107.81,41.879 27.38,0 50.47,-3.442 69.22,-10.321 v -60.781 c -18.75,11.141 -40.12,16.723 -64.06,16.723 -26.37,0 -47.66,-8.281 -63.91,-24.844 -16.17,-16.558 -24.22,-38.988 -24.22,-67.187 0,-27.192 7.58,-48.871 22.81,-65 15.32,-16.051 35.86,-24.063 61.72,-24.063 24.69,0 47.23,5.973 67.66,17.973 z" /><path
         id="path32"
         style="fill:#6a2426;fill-opacity:1;fill-rule:nonzero;stroke:none"
         d="m 2952.11,564.141 c -20.43,-9.922 -47.15,-14.84 -80.16,-14.84 -43.04,0 -76.87,12.578 -101.56,37.808 -24.61,25.313 -36.87,59.063 -36.87,101.25 0,44.879 13.82,81.25 41.56,109.063 27.69,27.887 63.63,41.879 107.81,41.879 27.38,0 50.47,-3.442 69.22,-10.321 v -60.781 c -18.75,11.141 -40.12,16.723 -64.06,16.723 -26.37,0 -47.66,-8.281 -63.91,-24.844 -16.17,-16.558 -24.22,-38.988 -24.22,-67.187 0,-27.192 7.58,-48.871 22.81,-65 15.32,-16.051 35.86,-24.063 61.72,-24.063 24.69,0 47.23,5.973 67.66,17.973 z" /><path
         id="path34"
         style="fill:#6a2426;fill-opacity:1;fill-rule:nonzero;stroke:none"
         d="m 3230.2,675.551 c 0,-84.18 -39.3,-126.25 -117.82,-126.25 -76.17,0 -114.22,41.129 -114.22,123.429 v 161.879 h 63.44 v -162.66 c 0,-45.429 17.7,-68.121 53.13,-68.121 34.76,0 52.18,21.91 52.18,65.781 v 165 h 63.29 z" /><path
         id="path36"
         style="fill:#26416d;fill-opacity:1;fill-rule:nonzero;stroke:none"
         d="m 809.34,294.141 v 173.91 h 63.43 c 19.378,0 34.261,-3.563 44.691,-10.629 10.391,-7.113 15.629,-17.152 15.629,-30.152 0,-9.379 -3.211,-17.622 -9.539,-24.692 -6.36,-6.988 -14.449,-11.84 -24.211,-14.527 v -0.473 c 12.262,-1.558 22.109,-6.168 29.531,-13.75 7.379,-7.617 11.09,-16.879 11.09,-27.808 0,-15.942 -5.699,-28.598 -17.031,-37.969 -11.371,-9.301 -26.95,-13.91 -46.719,-13.91 z m 39.211,145.16 v -41.25 h 17.187 c 8.133,0 14.461,1.91 19.063,5.777 4.687,3.942 7.039,9.371 7.039,16.25 0,12.813 -9.539,19.223 -28.602,19.223 z m 0,-70.473 v -45.777 h 21.25 c 9.07,0 16.14,2.07 21.25,6.25 5.199,4.25 7.82,10 7.82,17.179 0,6.961 -2.582,12.43 -7.66,16.411 -5.121,3.949 -12.152,5.937 -21.09,5.937 z M 1072.85,294.141 H 968.48 v 173.91 h 100.31 v -31.879 h -61.09 v -38.75 h 56.87 v -31.723 h -56.87 v -39.84 h 65.15 z" /><path
         id="path38"
         style="fill:#26416d;fill-opacity:1;fill-rule:nonzero;stroke:none"
         d="m 1270,436.172 h -61.41 V 393.52 H 1265 v -31.879 h -56.41 v -67.5 h -39.21 v 173.91 H 1270 Z" /><path
         id="path40"
         style="fill:#26416d;fill-opacity:1;fill-rule:nonzero;stroke:none"
         d="M 1352.19,468.051 V 437.73 h -14.53 V 324.449 h 14.53 v -30.308 h -68.28 v 30.308 h 14.53 V 437.73 h -14.53 v 30.321 z" /><path
         id="path42"
         style="fill:#26416d;fill-opacity:1;fill-rule:nonzero;stroke:none"
         d="m 1499.22,436.172 h -49.53 V 294.141 h -39.38 v 142.031 h -49.37 v 31.879 h 138.28 z" /><path
         id="path44"
         style="fill:#26416d;fill-opacity:1;fill-rule:nonzero;stroke:none"
         d="m 1555.12,324.77 -17.82,-61.411 h -29.84 l 12.34,61.411 z" /><path
         id="path46"
         style="fill:#26416d;fill-opacity:1;fill-rule:nonzero;stroke:none"
         d="m 1811.45,294.141 h -42.66 l -12.34,38.75 h -61.88 l -12.34,-38.75 h -42.35 l 63.28,173.91 h 46.41 z m -64.07,68.75 -18.59,58.437 c -1.37,4.371 -2.34,9.613 -2.97,15.781 h -0.94 c -0.43,-5.121 -1.4,-10.16 -2.97,-15.16 l -19.06,-59.058 z" /><path
         id="path48"
         style="fill:#26416d;fill-opacity:1;fill-rule:nonzero;stroke:none"
         d="m 1957.85,300.391 c -12.62,-6.172 -29.18,-9.219 -49.69,-9.219 -26.68,0 -47.65,7.808 -62.96,23.437 -15.32,15.7 -22.97,36.641 -22.97,62.813 0,27.808 8.59,50.348 25.78,67.656 17.19,17.262 39.53,25.942 67.03,25.942 16.95,0 31.25,-2.149 42.81,-6.411 v -37.808 c -11.56,6.949 -24.8,10.469 -39.69,10.469 -16.36,0 -29.61,-5.161 -39.68,-15.469 -10,-10.242 -15,-24.141 -15,-41.723 0,-16.797 4.72,-30.156 14.22,-40.156 9.45,-10 22.22,-15 38.28,-15 15.31,0 29.25,3.75 41.87,11.25 z" /><path
         id="path50"
         style="fill:#26416d;fill-opacity:1;fill-rule:nonzero;stroke:none"
         d="m 2110.62,436.172 h -49.53 V 294.141 h -39.37 v 142.031 h -49.38 v 31.879 h 138.28 z" /><path
         id="path52"
         style="fill:#26416d;fill-opacity:1;fill-rule:nonzero;stroke:none"
         d="M 2187.73,468.051 V 437.73 H 2173.2 V 324.449 h 14.53 v -30.308 h -68.28 v 30.308 h 14.53 V 437.73 h -14.53 v 30.321 z" /><path
         id="path54"
         style="fill:#26416d;fill-opacity:1;fill-rule:nonzero;stroke:none"
         d="m 2357.42,468.051 -59.84,-173.91 h -44.38 l -59.22,173.91 h 42.19 l 36.25,-121.102 c 1.96,-6.48 3.17,-12.258 3.6,-17.34 h 0.62 c 0.63,5.391 1.88,11.411 3.75,17.969 l 36.09,120.473 z" /><path
         id="path56"
         style="fill:#26416d;fill-opacity:1;fill-rule:nonzero;stroke:none"
         d="m 2482.93,294.141 h -104.38 v 173.91 h 100.32 v -31.879 h -61.1 v -38.75 h 56.88 v -31.723 h -56.88 v -39.84 h 65.16 z" /><path
         id="path58"
         style="fill:#26416d;fill-opacity:1;fill-rule:nonzero;stroke:none"
         d="m 2543.52,324.77 -17.82,-61.411 h -29.84 l 12.34,61.411 z" /><path
         id="path60"
         style="fill:#26416d;fill-opacity:1;fill-rule:nonzero;stroke:none"
         d="m 2806.41,291.328 c -4.3,0 -8.36,0.582 -12.19,1.723 -3.87,1.129 -7.5,2.648 -10.94,4.527 -3.44,1.953 -6.72,4.262 -9.84,6.871 -3.05,2.699 -5.9,5.512 -8.6,8.442 -3.04,-2.422 -6.68,-4.922 -10.93,-7.5 -4.18,-2.621 -8.91,-4.961 -14.22,-7.032 -5.24,-1.988 -11.06,-3.668 -17.5,-5 -6.37,-1.328 -13.21,-2.031 -20.47,-2.031 -9.49,0 -18.24,1.172 -26.25,3.442 -8.05,2.261 -14.96,5.66 -20.78,10.152 -5.86,4.457 -10.43,10 -13.75,16.558 -3.24,6.641 -4.85,14.379 -4.85,23.129 0,6.871 1.25,12.969 3.75,18.282 2.5,5.39 5.71,10.16 9.69,14.218 3.95,4.063 8.44,7.539 13.44,10.469 5,2.891 10.08,5.313 15.31,7.192 -2.5,1.949 -5.08,4.21 -7.66,6.71 -2.5,2.579 -4.8,5.399 -6.87,8.442 -1.99,3.008 -3.59,6.289 -4.84,9.848 -1.25,3.511 -1.88,7.339 -1.88,11.402 0,6.328 1.25,11.949 3.75,16.879 2.58,5 6.25,9.14 10.94,12.5 4.69,3.429 10.23,6.008 16.72,7.808 6.44,1.762 13.51,2.661 21.25,2.661 7.5,0 14.29,-0.942 20.47,-2.821 6.25,-1.871 11.56,-4.488 15.93,-7.808 4.46,-3.243 7.89,-7.192 10.32,-11.871 2.5,-4.692 3.75,-9.809 3.75,-15.321 0,-8.98 -2.74,-16.789 -8.13,-23.429 -5.43,-6.571 -13.05,-11.961 -22.81,-16.098 3.94,-1.793 7.69,-3.832 11.25,-6.094 3.51,-2.187 6.95,-4.769 10.31,-7.656 3.44,-2.934 6.76,-6.25 10,-10 3.2,-3.672 6.45,-7.891 9.69,-12.652 6.56,8.32 11.25,17.179 14.06,26.558 2.89,9.453 4.38,19.293 4.38,29.531 0,3.121 -0.24,6.09 -0.63,8.911 -0.31,2.808 -0.86,5.39 -1.56,7.808 h 32.66 c 0.82,-2.617 1.44,-5.117 1.87,-7.5 0.39,-2.418 0.63,-5.277 0.63,-8.598 0,-7.808 -0.86,-15.46 -2.5,-22.96 -1.68,-7.43 -4.03,-14.54 -7.04,-21.411 -2.93,-6.8 -6.52,-13.199 -10.78,-19.218 -4.29,-6.051 -8.98,-11.68 -14.06,-16.871 3.95,-4.18 8.01,-7.43 12.19,-9.692 4.26,-2.187 8.28,-3.277 12.03,-3.277 3.83,0 7.81,0.39 11.87,1.25 4.07,0.929 7.54,2.109 10.47,3.59 v -28.75 c -4.37,-1.871 -8.75,-3.2 -13.12,-4.063 -4.38,-0.816 -9.22,-1.25 -14.53,-1.25 z m -102.66,29.063 c 4.69,0 9.1,0.468 13.28,1.41 4.26,0.929 8.28,2.109 12.03,3.59 3.75,1.558 7.19,3.32 10.32,5.308 3.2,2.071 6.17,4.223 8.9,6.41 -4.18,6.442 -8.28,11.911 -12.34,16.411 -4.06,4.449 -8.09,8.281 -12.03,11.402 -3.99,3.199 -7.93,5.937 -11.88,8.129 -3.87,2.179 -7.77,4.14 -11.72,5.929 -3.36,-1.558 -6.52,-3.359 -9.53,-5.308 -3.05,-1.992 -5.74,-4.332 -8.12,-7.031 -2.31,-2.621 -4.18,-5.59 -5.63,-8.911 -1.37,-3.351 -2.03,-7.179 -2.03,-11.558 0,-3.871 0.66,-7.422 2.03,-10.621 1.33,-3.129 3.28,-5.86 5.78,-8.129 2.58,-2.192 5.67,-3.902 9.22,-5.152 3.52,-1.25 7.42,-1.879 11.72,-1.879 z m 22.34,110.16 c 0,2.258 -0.47,4.371 -1.4,6.25 -0.86,1.871 -2.03,3.429 -3.6,4.679 -1.48,1.25 -3.2,2.192 -5.15,2.821 -1.99,0.699 -4.06,1.09 -6.25,1.09 -2.62,0 -5.08,-0.43 -7.35,-1.25 -2.18,-0.743 -4.14,-1.84 -5.78,-3.282 -1.68,-1.371 -2.97,-2.968 -3.9,-4.839 -0.86,-1.879 -1.25,-3.911 -1.25,-6.098 0,-4.613 1.4,-8.832 4.21,-12.652 2.9,-3.75 6.45,-6.801 10.63,-9.071 2.7,0.942 5.2,2.031 7.5,3.281 2.38,1.329 4.45,2.899 6.25,4.692 1.88,1.758 3.32,3.789 4.38,6.098 1.13,2.378 1.71,5.152 1.71,8.281 z" /><path
         id="path62"
         style="fill:#26416d;fill-opacity:1;fill-rule:nonzero;stroke:none"
         d="m 2926.37,294.141 v 173.91 h 63.43 c 19.38,0 34.26,-3.563 44.69,-10.629 10.39,-7.113 15.63,-17.152 15.63,-30.152 0,-9.379 -3.21,-17.622 -9.53,-24.692 -6.37,-6.988 -14.46,-11.84 -24.22,-14.527 v -0.473 c 12.26,-1.558 22.11,-6.168 29.53,-13.75 7.38,-7.617 11.09,-16.879 11.09,-27.808 0,-15.942 -5.7,-28.598 -17.03,-37.969 -11.37,-9.301 -26.95,-13.91 -46.72,-13.91 z m 39.22,145.16 v -41.25 h 17.18 c 8.13,0 14.46,1.91 19.07,5.777 4.68,3.942 7.03,9.371 7.03,16.25 0,12.813 -9.53,19.223 -28.6,19.223 z m 0,-70.473 v -45.777 h 21.25 c 9.06,0 16.13,2.07 21.25,6.25 5.19,4.25 7.81,10 7.81,17.179 0,6.961 -2.58,12.43 -7.66,16.411 -5.12,3.949 -12.15,5.937 -21.09,5.937 z" /><path
         id="path64"
         style="fill:#26416d;fill-opacity:1;fill-rule:nonzero;stroke:none"
         d="m 3238.48,294.141 h -42.66 l -12.34,38.75 h -61.88 l -12.34,-38.75 h -42.35 l 63.29,173.91 h 46.4 z m -64.07,68.75 -18.59,58.437 c -1.37,4.371 -2.34,9.613 -2.97,15.781 h -0.94 c -0.43,-5.121 -1.4,-10.16 -2.96,-15.16 l -19.07,-59.058 z" /><path
         id="path66"
         style="fill:#26416d;fill-opacity:1;fill-rule:nonzero;stroke:none"
         d="M 3363.79,294.141 H 3260.2 v 173.91 h 39.21 V 325.859 h 64.38 z" /><path
         id="path68"
         style="fill:#26416d;fill-opacity:1;fill-rule:nonzero;stroke:none"
         d="m 3540.27,294.141 h -42.65 l -12.35,38.75 h -61.87 l -12.35,-38.75 h -42.34 l 63.28,173.91 h 46.41 z m -64.06,68.75 -18.59,58.437 c -1.37,4.371 -2.35,9.613 -2.97,15.781 h -0.94 c -0.43,-5.121 -1.41,-10.16 -2.97,-15.16 l -19.06,-59.058 z" /><path
         id="path70"
         style="fill:#26416d;fill-opacity:1;fill-rule:nonzero;stroke:none"
         d="m 3718.55,294.141 h -39.53 L 3607.3,403.52 c -4.18,6.32 -7.1,11.128 -8.75,14.371 h -0.46 c 0.62,-6.172 0.93,-15.551 0.93,-28.121 v -95.629 h -37.03 v 173.91 h 42.35 l 68.9,-105.781 c 3.21,-4.809 6.14,-9.54 8.75,-14.219 h 0.47 c -0.62,4.058 -0.94,12.027 -0.94,23.898 v 96.102 h 37.03 z" /><path
         id="path72"
         style="fill:#26416d;fill-opacity:1;fill-rule:nonzero;stroke:none"
         d="m 3883.2,300.391 c -12.61,-6.172 -29.18,-9.219 -49.68,-9.219 -26.68,0 -47.66,7.808 -62.97,23.437 -15.32,15.7 -22.97,36.641 -22.97,62.813 0,27.808 8.59,50.348 25.78,67.656 17.19,17.262 39.53,25.942 67.03,25.942 16.95,0 31.25,-2.149 42.81,-6.411 v -37.808 c -11.56,6.949 -24.8,10.469 -39.68,10.469 -16.37,0 -29.61,-5.161 -39.69,-15.469 -10,-10.242 -15,-24.141 -15,-41.723 0,-16.797 4.72,-30.156 14.22,-40.156 9.45,-10 22.22,-15 38.28,-15 15.31,0 29.26,3.75 41.87,11.25 z" /><path
         id="path74"
         style="fill:#26416d;fill-opacity:1;fill-rule:nonzero;stroke:none"
         d="m 4018.16,294.141 h -104.37 v 173.91 h 100.31 v -31.879 h -61.09 v -38.75 h 56.87 v -31.723 h -56.87 v -39.84 h 65.15 z" /><path
         id="path76"
         style="fill:#26416d;fill-opacity:1;fill-rule:nonzero;stroke:none"
         d="m 4046.25,294.141 v 173.91 h 61.72 c 61.76,0 92.65,-28.25 92.65,-84.692 0,-27.109 -8.43,-48.75 -25.31,-65 -16.87,-16.168 -39.33,-24.218 -67.34,-24.218 z m 39.22,142.031 V 325.859 h 19.37 c 16.96,0 30.32,5.082 40,15.313 9.69,10.199 14.54,24.098 14.54,41.719 0,16.558 -4.81,29.57 -14.38,39.058 -9.61,9.461 -23.05,14.223 -40.31,14.223 z" /></g></g></svg>